<mxfile host="app.diagrams.net" modified="2024-02-09T12:44:26.280Z" agent="Mozilla/5.0 (Windows NT 10.0; Win64; x64) AppleWebKit/537.36 (KHTML, like Gecko) Chrome/120.0.0.0 Safari/537.36 OPR/106.0.0.0" etag="baZYN5MRuHxvaG3hkXUq" version="23.1.2" type="github">
  <diagram name="Page-1" id="BWM-ZMpFbEPPjkwpoxUv">
    <mxGraphModel dx="1861" dy="1023" grid="0" gridSize="10" guides="1" tooltips="1" connect="1" arrows="1" fold="1" page="0" pageScale="1" pageWidth="850" pageHeight="1100" math="0" shadow="0">
      <root>
        <mxCell id="0" />
        <mxCell id="1" parent="0" />
        <mxCell id="C-xYl9RWemOpd0ZfZMy8-8" style="edgeStyle=orthogonalEdgeStyle;rounded=0;orthogonalLoop=1;jettySize=auto;html=1;" edge="1" parent="1" source="C-xYl9RWemOpd0ZfZMy8-1" target="C-xYl9RWemOpd0ZfZMy8-6">
          <mxGeometry relative="1" as="geometry" />
        </mxCell>
        <mxCell id="C-xYl9RWemOpd0ZfZMy8-9" style="edgeStyle=orthogonalEdgeStyle;rounded=0;orthogonalLoop=1;jettySize=auto;html=1;exitX=0;exitY=0;exitDx=0;exitDy=0;entryX=0.5;entryY=1;entryDx=0;entryDy=0;" edge="1" parent="1" source="C-xYl9RWemOpd0ZfZMy8-1" target="C-xYl9RWemOpd0ZfZMy8-3">
          <mxGeometry relative="1" as="geometry" />
        </mxCell>
        <mxCell id="C-xYl9RWemOpd0ZfZMy8-10" style="edgeStyle=orthogonalEdgeStyle;rounded=0;orthogonalLoop=1;jettySize=auto;html=1;exitX=1;exitY=0;exitDx=0;exitDy=0;entryX=0.5;entryY=1;entryDx=0;entryDy=0;" edge="1" parent="1" source="C-xYl9RWemOpd0ZfZMy8-1" target="C-xYl9RWemOpd0ZfZMy8-2">
          <mxGeometry relative="1" as="geometry" />
        </mxCell>
        <mxCell id="C-xYl9RWemOpd0ZfZMy8-11" style="edgeStyle=orthogonalEdgeStyle;rounded=0;orthogonalLoop=1;jettySize=auto;html=1;exitX=1;exitY=0.5;exitDx=0;exitDy=0;entryX=0;entryY=0.5;entryDx=0;entryDy=0;" edge="1" parent="1" source="C-xYl9RWemOpd0ZfZMy8-1" target="C-xYl9RWemOpd0ZfZMy8-7">
          <mxGeometry relative="1" as="geometry" />
        </mxCell>
        <mxCell id="C-xYl9RWemOpd0ZfZMy8-12" style="edgeStyle=orthogonalEdgeStyle;rounded=0;orthogonalLoop=1;jettySize=auto;html=1;exitX=1;exitY=1;exitDx=0;exitDy=0;" edge="1" parent="1" source="C-xYl9RWemOpd0ZfZMy8-1" target="C-xYl9RWemOpd0ZfZMy8-5">
          <mxGeometry relative="1" as="geometry" />
        </mxCell>
        <mxCell id="C-xYl9RWemOpd0ZfZMy8-13" style="edgeStyle=orthogonalEdgeStyle;rounded=0;orthogonalLoop=1;jettySize=auto;html=1;exitX=0;exitY=1;exitDx=0;exitDy=0;" edge="1" parent="1" source="C-xYl9RWemOpd0ZfZMy8-1" target="C-xYl9RWemOpd0ZfZMy8-4">
          <mxGeometry relative="1" as="geometry" />
        </mxCell>
        <mxCell id="C-xYl9RWemOpd0ZfZMy8-1" value="&lt;p&gt;&lt;b&gt;Innovative Concepts for Business Enhancements&lt;/b&gt;&lt;/p&gt;" style="ellipse;whiteSpace=wrap;html=1;" vertex="1" parent="1">
          <mxGeometry x="107" y="122" width="172" height="100" as="geometry" />
        </mxCell>
        <mxCell id="C-xYl9RWemOpd0ZfZMy8-2" value="" style="rounded=0;whiteSpace=wrap;html=1;" vertex="1" parent="1">
          <mxGeometry x="326" y="-54" width="120" height="60" as="geometry" />
        </mxCell>
        <mxCell id="C-xYl9RWemOpd0ZfZMy8-3" value="End-to-End Encryption" style="rounded=0;whiteSpace=wrap;html=1;" vertex="1" parent="1">
          <mxGeometry x="-48" y="-54" width="120" height="60" as="geometry" />
        </mxCell>
        <mxCell id="C-xYl9RWemOpd0ZfZMy8-4" value="" style="rounded=0;whiteSpace=wrap;html=1;" vertex="1" parent="1">
          <mxGeometry x="-48" y="305" width="120" height="60" as="geometry" />
        </mxCell>
        <mxCell id="C-xYl9RWemOpd0ZfZMy8-5" value="" style="rounded=0;whiteSpace=wrap;html=1;" vertex="1" parent="1">
          <mxGeometry x="326" y="305" width="120" height="60" as="geometry" />
        </mxCell>
        <mxCell id="C-xYl9RWemOpd0ZfZMy8-6" value="" style="rounded=0;whiteSpace=wrap;html=1;" vertex="1" parent="1">
          <mxGeometry x="-266" y="142" width="120" height="60" as="geometry" />
        </mxCell>
        <mxCell id="C-xYl9RWemOpd0ZfZMy8-7" value="" style="rounded=0;whiteSpace=wrap;html=1;" vertex="1" parent="1">
          <mxGeometry x="532" y="142" width="120" height="60" as="geometry" />
        </mxCell>
      </root>
    </mxGraphModel>
  </diagram>
</mxfile>
